<?xml version="1.0" encoding="UTF-8"?>
<!DOCTYPE svg PUBLIC "-//W3C//DTD SVG 1.1//EN" "http://www.w3.org/Graphics/SVG/1.1/DTD/svg11.dtd">
<!-- Creator: CorelDRAW X7 -->
<svg xmlns="http://www.w3.org/2000/svg" xml:space="preserve" width="269.917mm" height="95.8493mm" version="1.1" style="shape-rendering:geometricPrecision; text-rendering:geometricPrecision; image-rendering:optimizeQuality; fill-rule:evenodd; clip-rule:evenodd"
viewBox="0 0 26856 9537"
 xmlns:xlink="http://www.w3.org/1999/xlink">
 <defs>
  <style type="text/css">
   <![CDATA[
    .fil0 {fill:#903233}
    .fil1 {fill:#2B2A29;fill-rule:nonzero}
   ]]>
  </style>
 </defs>
 <g id="Layer_x0020_1">
  <metadata id="CorelCorpID_0Corel-Layer"/>
  <g id="_2233930377120">
   <path class="fil0" d="M20576 1227c13,-126 93,-493 518,-233 425,260 407,198 582,280 175,82 5,477 -22,537 -26,61 -38,142 -90,431 -51,288 -259,193 -353,168 -95,-27 -400,-227 -630,-289 -231,-61 -120,-276 -78,-456 69,-285 62,-314 73,-438l0 0zm-10413 -56c53,-264 105,-265 396,-162 72,25 185,55 341,71 155,17 443,106 410,342 -36,262 -56,503 -223,682 -93,100 -235,99 -355,102 -99,3 -273,37 -367,-80 -64,-77 -183,-143 -270,-215 -87,-73 -116,-380 -56,-472 48,-75 103,-140 124,-268l0 0zm-9839 2599c271,18 598,-265 719,-453 222,-347 -583,-2077 1101,-3218 104,-70 171,-110 378,50 257,199 721,436 956,620 194,151 130,222 -10,277 -65,24 -1350,703 -1033,1796 41,141 204,226 296,198 92,-26 494,-88 568,-32 127,104 228,259 375,307 0,0 100,-2 159,-66 190,-207 778,-589 1085,-552 203,23 375,352 446,367 71,14 220,-83 335,-100 165,-24 452,430 608,596 72,77 20,232 -23,298 -42,69 -415,697 -426,1079 -12,384 588,856 813,218 196,-698 328,-4935 361,-5034 39,-111 107,-118 213,-121 144,-4 887,413 974,507 93,100 132,229 109,333 -45,218 -296,1194 -288,1595 6,310 76,474 224,391 0,0 417,-299 778,-10 89,55 149,223 324,363 173,140 465,-101 493,-101 27,0 -43,-474 106,-557 148,-81 1115,400 1183,514 134,229 -6,307 92,521 98,212 882,-173 965,-363 187,-443 99,-680 338,-677 138,1 738,229 867,345 158,142 32,845 107,977 109,193 888,-371 1055,-854 126,-363 355,-493 464,-495 109,-2 139,50 294,91 157,41 636,223 682,431 62,282 -12,351 -75,715 -64,364 -89,1217 -87,1580 2,152 74,258 228,260 218,2 237,-273 231,-417 -19,-402 249,-2351 1510,-2515 235,-30 366,230 570,130 168,-82 165,-2008 160,-2436 -1,-84 60,-203 188,-168 121,34 66,-4 240,119 175,122 412,154 669,266 109,27 128,180 112,265 -185,843 -197,3266 -232,4703 49,110 145,163 207,146 382,-106 350,-268 384,-600 20,-196 149,-1910 154,-2012 5,-101 107,-380 322,-338 301,58 883,320 898,343 16,24 98,96 47,324 -51,229 -219,1845 -1,2118 147,183 207,250 309,244 116,-9 477,-215 470,-382 -5,-134 -219,-504 -248,-547 -62,-94 -93,-306 141,-470 196,-242 1138,-1045 1344,-1283 65,-68 219,-280 450,-99 232,184 1448,996 1418,1016 -30,18 220,92 33,349 -179,246 -319,770 -221,944 98,174 699,26 895,-93 120,-74 641,-543 657,-549 51,-20 22,36 71,92 -89,184 -195,574 -444,888 -117,273 160,112 112,245 -48,134 -670,784 -1212,738 -293,-25 -364,-323 -532,-553 -88,-121 -104,-119 -234,-56 -131,63 -621,450 -751,503 -131,53 -205,123 -403,31 -197,-92 -501,-475 -590,-384 -108,110 -565,378 -744,466 -180,87 -342,135 -496,4 -173,-148 -525,-456 -912,-272 -380,203 -705,394 -939,439 -184,35 -308,-61 -333,-72l-545 -257c-28,-14 -216,-72 -348,-45 -283,61 -758,429 -1148,411 -202,-11 -835,-374 -910,-471 -74,-96 -247,-120 -322,-64 -170,129 -499,305 -557,327 -58,24 -207,139 -458,-31 -249,-169 -440,-231 -446,-245 -6,-15 -175,-45 -168,-362 7,-318 -55,-656 -60,-722 -4,-66 -68,-249 -236,-167 -202,98 -676,408 -798,635 -123,226 -99,179 -181,392 -81,214 -88,259 -113,330 -42,119 -243,185 -343,130 -296,-160 -518,-339 -733,-505 -192,-147 -186,-287 -153,-497 50,-309 115,-911 124,-1018 11,-107 82,-306 -177,-203 -257,102 -339,160 -496,266 -116,79 -198,98 -218,396 -21,298 -93,1002 -127,1231 -16,111 -166,353 -392,288 -230,-65 -412,-150 -593,-261 -180,-112 -257,-134 -217,-433 39,-299 134,-1245 141,-1400 6,-155 33,-446 -112,-411 -119,29 -137,38 -252,149 -56,53 -130,1898 -1520,2420 -388,146 -896,-454 -1131,-398 -170,40 -335,175 -567,329 -320,214 -602,-108 -775,-229 -171,-120 -287,-134 -444,-33 -283,180 -379,311 -497,377 -122,68 -486,62 -610,-15 -425,-246 -1022,-806 -1076,-848 -54,-42 -150,-201 -106,-393 61,-266 151,-579 158,-680 9,-113 -4,-195 -57,-212 -432,-137 -493,103 -498,297 -8,353 -4,2364 -51,2713 -42,304 -122,701 -350,1008 -228,307 -489,461 -698,559 -165,78 -235,28 -320,-27 -222,-143 -566,-466 -731,-613 -76,-68 -102,-142 14,-235 759,-600 950,-780 931,-1796 -18,-955 -3,-1116 -20,-1313 -18,-196 -399,-105 -516,-153 -112,-45 -123,-73 -244,-324 -180,-157 -296,-282 -399,-510 -129,-287 154,-320 291,-310l0 0z"/>
   <path class="fil1" d="M5054 8712c-44,-41 -92,-71 -142,-91 -50,-21 -103,-31 -158,-31 -106,0 -193,36 -260,109 -67,73 -100,167 -100,283 0,111 32,203 97,276 65,73 148,109 247,109 58,0 112,-11 165,-32 52,-22 102,-55 150,-99l0 191c-43,32 -89,57 -139,73 -51,16 -105,24 -164,24 -74,0 -143,-13 -207,-39 -63,-26 -119,-64 -167,-115 -47,-50 -84,-108 -109,-175 -26,-67 -39,-139 -39,-215 0,-76 13,-147 39,-214 25,-67 62,-125 111,-176 48,-51 104,-90 166,-116 63,-26 131,-39 204,-39 57,0 112,9 164,27 52,17 102,44 151,80l-9 170zm878 784l0 -1036 545 0 0 143 -387 0 0 260 387 0 0 148 -387 0 0 334 387 0 0 151 -545 0zm1407 0l0 -1036 159 0 0 885 355 0 0 151 -514 0zm1323 0l0 -1036 546 0 0 143 -387 0 0 260 387 0 0 148 -387 0 0 334 387 0 0 151 -546 0zm1564 -599l60 0c76,0 129,-10 161,-32 31,-22 46,-59 46,-111 0,-57 -14,-96 -43,-119 -29,-23 -83,-35 -164,-35l-60 0 0 297zm0 459l54 0c56,0 98,-3 125,-7 28,-5 49,-14 66,-25 19,-14 34,-33 45,-55 11,-24 16,-49 16,-77 0,-33 -7,-62 -20,-86 -13,-25 -31,-44 -55,-58 -15,-8 -32,-14 -52,-17 -19,-4 -45,-6 -77,-6l-48 0 -54 0 0 331zm-156 140l0 -1036 246 0c71,0 123,4 156,12 34,8 62,21 86,39 30,24 54,55 70,93 17,39 25,81 25,127 0,55 -12,101 -36,138 -24,38 -59,63 -104,78 57,9 101,37 134,83 32,45 49,103 49,172 0,42 -7,82 -21,119 -14,38 -33,70 -59,97 -26,28 -59,49 -99,61 -40,11 -106,17 -199,17l-248 0zm1626 -594l29 0c84,0 140,-11 167,-31 28,-21 42,-58 42,-111 0,-57 -15,-97 -45,-120 -29,-24 -84,-35 -164,-35l-29 0 0 297zm-9 130l0 464 -149 0 0 -1036 221 0c65,0 115,4 151,13 36,9 66,24 92,45 30,25 53,57 70,97 16,39 24,83 24,130 0,83 -18,148 -56,195 -38,47 -94,75 -168,85l337 471 -179 0 -326 -464 -17 0zm1503 57l272 0 -100 -237c-6,-15 -12,-32 -18,-51 -6,-20 -13,-42 -19,-66 -5,23 -11,44 -17,63 -6,20 -12,38 -18,54l-100 237zm439 407l-111 -267 -387 0 -114 267 -166 0 473 -1077 472 1077 -167 0zm1180 -893l0 893 -158 0 0 -893 -260 0 0 -143 677 0 0 143 -259 0zm1061 893l0 -1036 545 0 0 143 -387 0 0 260 387 0 0 148 -387 0 0 334 387 0 0 151 -545 0zm2379 0l0 -1036 158 0 0 1036 -158 0zm1067 0l0 -1077 621 633c17,18 34,37 52,58 17,20 35,43 54,68l0 -718 146 0 0 1077 -632 -645c-17,-18 -34,-36 -49,-56 -16,-19 -31,-39 -45,-61l0 721 -147 0zm1937 -152l133 0c74,0 129,-5 165,-16 37,-10 69,-28 96,-52 37,-34 65,-75 83,-125 19,-50 28,-108 28,-174 0,-66 -9,-124 -28,-174 -18,-50 -46,-91 -83,-125 -27,-24 -60,-42 -99,-52 -38,-11 -99,-16 -181,-16l-57 0 -57 0 0 734zm-159 152l0 -1036 214 0c139,0 237,7 294,22 57,15 107,40 149,74 57,46 100,105 129,177 29,72 44,154 44,246 0,92 -15,173 -44,244 -29,71 -72,130 -129,176 -42,35 -91,60 -146,75 -54,15 -139,22 -254,22l-43 0 -214 0zm1695 0l0 -1036 158 0 0 1036 -158 0zm1273 -407l273 0 -100 -237c-6,-15 -12,-32 -18,-51 -7,-20 -13,-42 -19,-66 -5,23 -11,44 -17,63 -6,20 -12,38 -18,54l-101 237zm439 407l-110 -267 -387 0 -114 267 -166 0 473 -1077 472 1077 -168 0z"/>
  </g>
 </g>
</svg>
