<svg id="Layer_1" data-name="Layer 1" xmlns="http://www.w3.org/2000/svg" viewBox="0 0 269.32 91.97"><defs><style>.cls-1{fill:#c6dd73;}.cls-2{fill:#052541;}</style></defs><title>np new lgo</title><rect class="cls-1" y="44.13" width="41.77" height="3.72"/><rect class="cls-1" x="0.99" y="36.77" width="41.52" height="3.72"/><rect class="cls-1" x="2.85" y="29.42" width="41.06" height="3.72"/><rect class="cls-1" x="6.05" y="22.06" width="41.49" height="3.72"/><rect class="cls-1" x="11.33" y="14.71" width="41.58" height="3.72"/><rect class="cls-1" x="19.43" y="7.35" width="41.2" height="3.72"/><rect class="cls-1" x="36.59" width="17.65" height="3.72"/><rect class="cls-1" x="0.99" y="51.48" width="41.52" height="3.72"/><rect class="cls-1" x="2.85" y="58.84" width="41.06" height="3.72"/><rect class="cls-1" x="6.05" y="66.19" width="41.49" height="3.72"/><rect class="cls-1" x="11.33" y="73.55" width="41.58" height="3.72"/><rect class="cls-1" x="19.43" y="80.9" width="41.2" height="3.72"/><rect class="cls-1" x="36.59" y="88.25" width="17.65" height="3.72"/><rect class="cls-2" x="45.41" y="44.13" width="45.41" height="3.72"/><rect class="cls-2" x="46.15" y="36.77" width="43.93" height="3.72"/><rect class="cls-2" x="47.54" y="29.42" width="41.14" height="3.72"/><rect class="cls-2" x="51.32" y="22.06" width="33.59" height="3.72"/><rect class="cls-2" x="56.55" y="14.71" width="23.14" height="3.72"/><rect class="cls-2" x="64.27" y="7.35" width="7.68" height="3.72"/><rect class="cls-2" x="46.15" y="51.48" width="43.93" height="3.72"/><rect class="cls-2" x="47.54" y="58.84" width="41.14" height="3.72"/><rect class="cls-2" x="51.32" y="66.19" width="33.59" height="3.72"/><rect class="cls-2" x="56.55" y="73.55" width="23.14" height="3.72"/><rect class="cls-2" x="64.27" y="80.9" width="7.68" height="3.72"/><path class="cls-2" d="M119.56,18.26l4.22,15.21h.32V18.26h3.49V36.74h-6.18l-4.23-15.21h-.31V36.74h-3.49V18.26Z"/><path class="cls-2" d="M136.91,23.27c3.8,0,6.37,2.67,6.37,6.61v1.24h-9.54A3.2,3.2,0,0,0,137,34.26a3.43,3.43,0,0,0,3.27-1.95L143,33.89a6.5,6.5,0,0,1-5.94,3.22,6.66,6.66,0,0,1-6.74-7A6.46,6.46,0,0,1,136.91,23.27Zm3,5.63a2.86,2.86,0,0,0-3-2.77,2.9,2.9,0,0,0-3.11,2.77Z"/><path class="cls-2" d="M147.68,23.64V19.57H151v4.07h3.6v2.8H151v6.71c0,.53.27.79.74.79h2.11v2.8h-3.59a2.48,2.48,0,0,1-2.59-2.53V26.44h-3.32v-2.8Z"/><path class="cls-2" d="M165,18.26a5.58,5.58,0,0,1,5.92,5.86A5.63,5.63,0,0,1,165,30h-4.12v6.76H157.4V18.26Zm-4.12,8.55h3.78a2.57,2.57,0,0,0,2.77-2.69,2.58,2.58,0,0,0-2.77-2.7h-3.78Z"/><path class="cls-2" d="M176.52,25.54h.37c.5-1.45,1.61-1.95,3.28-1.95h1.27V26.5h-2a2.59,2.59,0,0,0-2.9,2.74v7.5h-3.33V23.64h3.27Z"/><path class="cls-2" d="M189.33,23.27a6.67,6.67,0,0,1,6.87,6.92,6.87,6.87,0,1,1-13.73,0A6.67,6.67,0,0,1,189.33,23.27Zm0,10.88c2.12,0,3.54-1.58,3.54-4s-1.42-4-3.54-4-3.54,1.59-3.54,4S187.22,34.15,189.33,34.15Z"/><path class="cls-2" d="M198.89,23.64h3.28v1.85h.37a4.5,4.5,0,0,1,4.17-2.22c3.27,0,6,2.91,6,6.92s-2.75,6.92-6,6.92a4.5,4.5,0,0,1-4.17-2.22h-.32V42h-3.33Zm10.51,6.55c0-2.53-1.58-4-3.59-4s-3.59,1.48-3.59,4,1.53,4,3.59,4S209.4,32.73,209.4,30.19Z"/><path class="cls-2" d="M218.75,18.26v7.5h.32c.53-1.22,1.74-2.33,4.15-2.33,2.9,0,5.09,2.09,5.09,5.49v7.82H225v-7.5a2.67,2.67,0,0,0-3-2.9c-2.14,0-3.28,1.32-3.28,3.64v6.76h-3.33V18.26Z"/><path class="cls-2" d="M237.42,23.27c3.81,0,6.37,2.67,6.37,6.61v1.24h-9.54a3.21,3.21,0,0,0,3.28,3.14,3.43,3.43,0,0,0,3.27-1.95l2.72,1.58a6.48,6.48,0,0,1-5.94,3.22,6.65,6.65,0,0,1-6.73-7A6.45,6.45,0,0,1,237.42,23.27Zm3,5.63a2.86,2.86,0,0,0-3-2.77,2.9,2.9,0,0,0-3.12,2.77Z"/><path class="cls-2" d="M248.2,23.64V19.57h3.33v4.07h3.59v2.8h-3.59v6.71c0,.53.26.79.73.79h2.12v2.8h-3.59a2.48,2.48,0,0,1-2.59-2.53V26.44h-3.33v-2.8Z"/><path class="cls-2" d="M262.51,23.27a9,9,0,0,1,6.74,3l-2.25,2A5.63,5.63,0,0,0,262.67,26c-1.32,0-1.93.53-1.93,1.24s.66,1.08,1.9,1.29l1.59.27c2.85.47,5.09,1.45,5.09,4s-2.32,4.3-5.54,4.3a8.31,8.31,0,0,1-7.18-3.8l2.61-1.61a4.94,4.94,0,0,0,4.52,2.72c1.53,0,2.37-.61,2.37-1.4s-.68-1.16-2-1.37l-1.59-.27c-3.06-.5-5-1.64-5-4.07S259.5,23.27,262.51,23.27Z"/><path class="cls-2" d="M120.3,49.58c4.67,0,7.29,2.58,7.29,6.7v.64H124.1v-.69c0-2.11-1.27-3.54-3.8-3.54a4,4,0,0,0-4.17,4.23v4.54c0,2.54,1.45,4.23,4.17,4.23s3.8-1.46,3.8-3.54v-.69h3.49v.64c0,4.09-2.41,6.7-7.29,6.7-4.54,0-7.66-2.58-7.66-7.5V57.08C112.64,52.48,115.62,49.58,120.3,49.58Z"/><path class="cls-2" d="M143.75,55.33l-7.18,18.39H133l1.85-4.44-5.44-14H133l3.44,9.41h.31l3.44-9.41Z"/><path class="cls-2" d="M149.14,50v7.23h.31A4.52,4.52,0,0,1,153.63,55c3.27,0,6,2.91,6,6.92s-2.75,6.92-6,6.92a4.52,4.52,0,0,1-4.18-2.22h-.37v1.85h-3.27V50Zm0,11.93c0,2.49,1.53,4,3.59,4s3.59-1.43,3.59-4-1.58-4-3.59-4S149.14,59.4,149.14,61.88Z"/><path class="cls-2" d="M168.12,55c3.81,0,6.37,2.67,6.37,6.61v1.24H165A3.19,3.19,0,0,0,168.23,66a3.45,3.45,0,0,0,3.28-2l2.72,1.58a6.5,6.5,0,0,1-5.95,3.22,6.65,6.65,0,0,1-6.73-7A6.45,6.45,0,0,1,168.12,55Zm3,5.63a2.86,2.86,0,0,0-3-2.77A2.91,2.91,0,0,0,165,60.59Z"/><path class="cls-2" d="M180.35,57.24h.37c.5-1.46,1.61-2,3.28-2h1.27v2.91h-2a2.6,2.6,0,0,0-2.91,2.74v7.5h-3.32V55.33h3.27Z"/><path class="cls-2" d="M190.12,55.33l1.56,10.25H192l2.06-10.25h4.59l2.06,10.25H201l1.56-10.25h3.33l-2.59,13.1h-4.75l-2.06-10.24h-.32l-2.06,10.24h-4.76l-2.58-13.1Z"/><path class="cls-2" d="M214.13,55a6.92,6.92,0,1,1-6.87,6.92A6.68,6.68,0,0,1,214.13,55Zm0,10.89c2.11,0,3.54-1.59,3.54-4s-1.43-4-3.54-4-3.54,1.59-3.54,4S212,65.85,214.13,65.85Z"/><path class="cls-2" d="M227,57.24h.37c.5-1.46,1.61-2,3.28-2h1.27v2.91h-2a2.59,2.59,0,0,0-2.9,2.74v7.5h-3.33V55.33H227Z"/><path class="cls-2" d="M241.78,60.27l5.73,8.16h-3.86l-4.22-6.18-2,1.67v4.51h-3.33V50h3.33v9.87h.32l5.33-4.49h4.65Z"/><path class="cls-2" d="M254.43,55a9,9,0,0,1,6.73,3l-2.24,2a5.65,5.65,0,0,0-4.33-2.27c-1.32,0-1.93.53-1.93,1.24s.66,1.08,1.9,1.29l1.58.27c2.86.47,5.1,1.45,5.1,4s-2.32,4.3-5.55,4.3a8.31,8.31,0,0,1-7.18-3.8l2.62-1.61a4.93,4.93,0,0,0,4.51,2.72c1.53,0,2.38-.61,2.38-1.4s-.69-1.16-2-1.37l-1.58-.27c-3.07-.5-5-1.63-5-4.07S251.42,55,254.43,55Z"/></svg>